<mxfile host="app.diagrams.net" agent="Mozilla/5.0 (Windows NT 10.0; Win64; x64) AppleWebKit/537.36 (KHTML, like Gecko) Chrome/136.0.0.0 Safari/537.36" version="26.0.8">
  <diagram id="prtHgNgQTEPvFCAcTncT" name="Page-1">
    <mxGraphModel dx="729" dy="501" grid="1" gridSize="10" guides="1" tooltips="1" connect="1" arrows="1" fold="1" page="1" pageScale="1" pageWidth="827" pageHeight="1169" math="0" shadow="0">
      <root>
        <mxCell id="0" />
        <mxCell id="1" parent="0" />
        <mxCell id="j2NxCKgi0GnDnkuyiFUt-52" style="edgeStyle=orthogonalEdgeStyle;rounded=0;orthogonalLoop=1;jettySize=auto;html=1;entryX=0.5;entryY=0;entryDx=0;entryDy=0;" edge="1" parent="1" source="j2NxCKgi0GnDnkuyiFUt-14" target="j2NxCKgi0GnDnkuyiFUt-38">
          <mxGeometry relative="1" as="geometry" />
        </mxCell>
        <mxCell id="j2NxCKgi0GnDnkuyiFUt-14" value="第3章 基于渐近特征融合的火灾检测方法&lt;div&gt;&lt;br&gt;&lt;/div&gt;&lt;div&gt;&lt;br&gt;&lt;/div&gt;&lt;div&gt;&lt;br&gt;&lt;/div&gt;&lt;div&gt;&lt;br&gt;&lt;/div&gt;&lt;div&gt;&lt;br&gt;&lt;/div&gt;&lt;div&gt;&lt;br&gt;&lt;/div&gt;&lt;div&gt;&lt;br&gt;&lt;/div&gt;&lt;div&gt;&lt;br&gt;&lt;/div&gt;&lt;div&gt;&lt;br&gt;&lt;/div&gt;" style="rounded=0;whiteSpace=wrap;html=1;" vertex="1" parent="1">
          <mxGeometry x="130" y="380" width="310" height="150" as="geometry" />
        </mxCell>
        <mxCell id="j2NxCKgi0GnDnkuyiFUt-26" style="edgeStyle=orthogonalEdgeStyle;rounded=0;orthogonalLoop=1;jettySize=auto;html=1;exitX=0.5;exitY=1;exitDx=0;exitDy=0;entryX=0.5;entryY=0;entryDx=0;entryDy=0;" edge="1" parent="1" source="j2NxCKgi0GnDnkuyiFUt-23" target="j2NxCKgi0GnDnkuyiFUt-25">
          <mxGeometry relative="1" as="geometry" />
        </mxCell>
        <mxCell id="j2NxCKgi0GnDnkuyiFUt-23" value="" style="rounded=0;whiteSpace=wrap;html=1;" vertex="1" parent="1">
          <mxGeometry x="150.38" y="405" width="269.25" height="70" as="geometry" />
        </mxCell>
        <mxCell id="j2NxCKgi0GnDnkuyiFUt-8" style="edgeStyle=orthogonalEdgeStyle;rounded=0;orthogonalLoop=1;jettySize=auto;html=1;" edge="1" parent="1" source="j2NxCKgi0GnDnkuyiFUt-1">
          <mxGeometry relative="1" as="geometry">
            <mxPoint x="453" y="240" as="targetPoint" />
          </mxGeometry>
        </mxCell>
        <mxCell id="j2NxCKgi0GnDnkuyiFUt-1" value="第1章 绪论&lt;div&gt;&lt;br&gt;&lt;/div&gt;&lt;div&gt;&lt;br&gt;&lt;/div&gt;&lt;div&gt;&lt;br&gt;&lt;/div&gt;&lt;div&gt;&lt;br&gt;&lt;/div&gt;" style="rounded=0;whiteSpace=wrap;html=1;" vertex="1" parent="1">
          <mxGeometry x="298" y="80" width="310" height="110" as="geometry" />
        </mxCell>
        <mxCell id="j2NxCKgi0GnDnkuyiFUt-3" value="研究背景" style="rounded=0;whiteSpace=wrap;html=1;" vertex="1" parent="1">
          <mxGeometry x="308" y="125" width="140" height="20" as="geometry" />
        </mxCell>
        <mxCell id="j2NxCKgi0GnDnkuyiFUt-4" value="国内外研究现状" style="rounded=0;whiteSpace=wrap;html=1;" vertex="1" parent="1">
          <mxGeometry x="308" y="160" width="140" height="20" as="geometry" />
        </mxCell>
        <mxCell id="j2NxCKgi0GnDnkuyiFUt-5" value="本文主要工作以及创新点" style="rounded=0;whiteSpace=wrap;html=1;" vertex="1" parent="1">
          <mxGeometry x="458" y="125" width="140" height="20" as="geometry" />
        </mxCell>
        <mxCell id="j2NxCKgi0GnDnkuyiFUt-6" value="论文组织结构" style="rounded=0;whiteSpace=wrap;html=1;" vertex="1" parent="1">
          <mxGeometry x="458" y="160" width="140" height="20" as="geometry" />
        </mxCell>
        <mxCell id="j2NxCKgi0GnDnkuyiFUt-36" style="edgeStyle=orthogonalEdgeStyle;rounded=0;orthogonalLoop=1;jettySize=auto;html=1;exitX=0.5;exitY=1;exitDx=0;exitDy=0;" edge="1" parent="1" source="j2NxCKgi0GnDnkuyiFUt-9" target="j2NxCKgi0GnDnkuyiFUt-14">
          <mxGeometry relative="1" as="geometry" />
        </mxCell>
        <mxCell id="j2NxCKgi0GnDnkuyiFUt-37" style="edgeStyle=orthogonalEdgeStyle;rounded=0;orthogonalLoop=1;jettySize=auto;html=1;" edge="1" parent="1" source="j2NxCKgi0GnDnkuyiFUt-9" target="j2NxCKgi0GnDnkuyiFUt-27">
          <mxGeometry relative="1" as="geometry" />
        </mxCell>
        <mxCell id="j2NxCKgi0GnDnkuyiFUt-9" value="第2章 相关理论与技术&lt;div&gt;&lt;br&gt;&lt;/div&gt;&lt;div&gt;&lt;br&gt;&lt;/div&gt;&lt;div&gt;&lt;br&gt;&lt;/div&gt;&lt;div&gt;&lt;br&gt;&lt;/div&gt;" style="rounded=0;whiteSpace=wrap;html=1;" vertex="1" parent="1">
          <mxGeometry x="328" y="240" width="249" height="100" as="geometry" />
        </mxCell>
        <mxCell id="j2NxCKgi0GnDnkuyiFUt-10" value="深度学习理论" style="rounded=0;whiteSpace=wrap;html=1;" vertex="1" parent="1">
          <mxGeometry x="339" y="280" width="101" height="20" as="geometry" />
        </mxCell>
        <mxCell id="j2NxCKgi0GnDnkuyiFUt-11" value="单阶段目标检测" style="rounded=0;whiteSpace=wrap;html=1;" vertex="1" parent="1">
          <mxGeometry x="458" y="280" width="101" height="20" as="geometry" />
        </mxCell>
        <mxCell id="j2NxCKgi0GnDnkuyiFUt-12" value="评价指标" style="rounded=0;whiteSpace=wrap;html=1;" vertex="1" parent="1">
          <mxGeometry x="339" y="310" width="101" height="20" as="geometry" />
        </mxCell>
        <mxCell id="j2NxCKgi0GnDnkuyiFUt-13" value="双阶段目标检测" style="rounded=0;whiteSpace=wrap;html=1;" vertex="1" parent="1">
          <mxGeometry x="458" y="310" width="101" height="20" as="geometry" />
        </mxCell>
        <mxCell id="j2NxCKgi0GnDnkuyiFUt-16" value="渐近特征融合算法" style="rounded=0;whiteSpace=wrap;html=1;" vertex="1" parent="1">
          <mxGeometry x="161" y="417.5" width="101" height="20" as="geometry" />
        </mxCell>
        <mxCell id="j2NxCKgi0GnDnkuyiFUt-17" value="EMA注意力机制" style="rounded=0;whiteSpace=wrap;html=1;" vertex="1" parent="1">
          <mxGeometry x="310" y="417.5" width="101" height="20" as="geometry" />
        </mxCell>
        <mxCell id="j2NxCKgi0GnDnkuyiFUt-18" value="SIOU损失函数" style="rounded=0;whiteSpace=wrap;html=1;" vertex="1" parent="1">
          <mxGeometry x="234.5" y="445" width="101" height="20" as="geometry" />
        </mxCell>
        <mxCell id="j2NxCKgi0GnDnkuyiFUt-25" value="解决火焰特征易受影响问题" style="rounded=0;whiteSpace=wrap;html=1;" vertex="1" parent="1">
          <mxGeometry x="189" y="495" width="192" height="20" as="geometry" />
        </mxCell>
        <mxCell id="j2NxCKgi0GnDnkuyiFUt-53" style="edgeStyle=orthogonalEdgeStyle;rounded=0;orthogonalLoop=1;jettySize=auto;html=1;exitX=0.5;exitY=1;exitDx=0;exitDy=0;" edge="1" parent="1" source="j2NxCKgi0GnDnkuyiFUt-27">
          <mxGeometry relative="1" as="geometry">
            <mxPoint x="448" y="570" as="targetPoint" />
          </mxGeometry>
        </mxCell>
        <mxCell id="j2NxCKgi0GnDnkuyiFUt-27" value="第4章 基于RepGhost的轻量化火灾检测方法&lt;div&gt;&lt;br&gt;&lt;/div&gt;&lt;div&gt;&lt;br&gt;&lt;/div&gt;&lt;div&gt;&lt;br&gt;&lt;/div&gt;&lt;div&gt;&lt;br&gt;&lt;/div&gt;&lt;div&gt;&lt;br&gt;&lt;/div&gt;&lt;div&gt;&lt;br&gt;&lt;/div&gt;&lt;div&gt;&lt;br&gt;&lt;/div&gt;&lt;div&gt;&lt;br&gt;&lt;/div&gt;&lt;div&gt;&lt;br&gt;&lt;/div&gt;" style="rounded=0;whiteSpace=wrap;html=1;" vertex="1" parent="1">
          <mxGeometry x="468" y="380" width="310" height="150" as="geometry" />
        </mxCell>
        <mxCell id="j2NxCKgi0GnDnkuyiFUt-28" style="edgeStyle=orthogonalEdgeStyle;rounded=0;orthogonalLoop=1;jettySize=auto;html=1;exitX=0.5;exitY=1;exitDx=0;exitDy=0;entryX=0.5;entryY=0;entryDx=0;entryDy=0;" edge="1" parent="1" source="j2NxCKgi0GnDnkuyiFUt-29" target="j2NxCKgi0GnDnkuyiFUt-33">
          <mxGeometry relative="1" as="geometry" />
        </mxCell>
        <mxCell id="j2NxCKgi0GnDnkuyiFUt-29" value="" style="rounded=0;whiteSpace=wrap;html=1;" vertex="1" parent="1">
          <mxGeometry x="491" y="405" width="269.25" height="50" as="geometry" />
        </mxCell>
        <mxCell id="j2NxCKgi0GnDnkuyiFUt-30" value="结构重参数化Ghost模块" style="rounded=0;whiteSpace=wrap;html=1;" vertex="1" parent="1">
          <mxGeometry x="499" y="417.5" width="132" height="20" as="geometry" />
        </mxCell>
        <mxCell id="j2NxCKgi0GnDnkuyiFUt-31" value="SPD-Conv模块" style="rounded=0;whiteSpace=wrap;html=1;" vertex="1" parent="1">
          <mxGeometry x="648" y="417.5" width="101" height="20" as="geometry" />
        </mxCell>
        <mxCell id="j2NxCKgi0GnDnkuyiFUt-33" value="解决计算复杂度增加问题和保留小目标火焰细粒度信息" style="rounded=0;whiteSpace=wrap;html=1;" vertex="1" parent="1">
          <mxGeometry x="529.62" y="485" width="191.38" height="30" as="geometry" />
        </mxCell>
        <mxCell id="j2NxCKgi0GnDnkuyiFUt-54" style="edgeStyle=orthogonalEdgeStyle;rounded=0;orthogonalLoop=1;jettySize=auto;html=1;exitX=0.5;exitY=1;exitDx=0;exitDy=0;entryX=0.5;entryY=0;entryDx=0;entryDy=0;" edge="1" parent="1" source="j2NxCKgi0GnDnkuyiFUt-38" target="j2NxCKgi0GnDnkuyiFUt-47">
          <mxGeometry relative="1" as="geometry" />
        </mxCell>
        <mxCell id="j2NxCKgi0GnDnkuyiFUt-38" value="第5章 轻量化火灾检测系统&lt;div&gt;&lt;br&gt;&lt;/div&gt;&lt;div&gt;&lt;br&gt;&lt;/div&gt;&lt;div&gt;&lt;br&gt;&lt;/div&gt;&lt;div&gt;&lt;br&gt;&lt;/div&gt;&lt;div&gt;&lt;br&gt;&lt;/div&gt;" style="rounded=0;whiteSpace=wrap;html=1;" vertex="1" parent="1">
          <mxGeometry x="328" y="570" width="240" height="110" as="geometry" />
        </mxCell>
        <mxCell id="j2NxCKgi0GnDnkuyiFUt-39" value="系统需求分析" style="rounded=0;whiteSpace=wrap;html=1;" vertex="1" parent="1">
          <mxGeometry x="339" y="605" width="101" height="20" as="geometry" />
        </mxCell>
        <mxCell id="j2NxCKgi0GnDnkuyiFUt-40" value="系统开发环境" style="rounded=0;whiteSpace=wrap;html=1;" vertex="1" parent="1">
          <mxGeometry x="339" y="635" width="101" height="20" as="geometry" />
        </mxCell>
        <mxCell id="j2NxCKgi0GnDnkuyiFUt-41" value="系统实现与测试" style="rounded=0;whiteSpace=wrap;html=1;" vertex="1" parent="1">
          <mxGeometry x="458" y="635" width="101" height="20" as="geometry" />
        </mxCell>
        <mxCell id="j2NxCKgi0GnDnkuyiFUt-42" value="系统总体设计" style="rounded=0;whiteSpace=wrap;html=1;" vertex="1" parent="1">
          <mxGeometry x="458" y="605" width="101" height="20" as="geometry" />
        </mxCell>
        <mxCell id="j2NxCKgi0GnDnkuyiFUt-47" value="第6章 总结与展望&lt;div&gt;&lt;br&gt;&lt;/div&gt;&lt;div&gt;&lt;br&gt;&lt;/div&gt;&lt;div&gt;&lt;br&gt;&lt;/div&gt;" style="rounded=0;whiteSpace=wrap;html=1;" vertex="1" parent="1">
          <mxGeometry x="328" y="730" width="240" height="70" as="geometry" />
        </mxCell>
        <mxCell id="j2NxCKgi0GnDnkuyiFUt-49" value="论文工作总结" style="rounded=0;whiteSpace=wrap;html=1;" vertex="1" parent="1">
          <mxGeometry x="339" y="760" width="101" height="20" as="geometry" />
        </mxCell>
        <mxCell id="j2NxCKgi0GnDnkuyiFUt-50" value="研究工作展望" style="rounded=0;whiteSpace=wrap;html=1;" vertex="1" parent="1">
          <mxGeometry x="458" y="760" width="101" height="20" as="geometry" />
        </mxCell>
      </root>
    </mxGraphModel>
  </diagram>
</mxfile>
